<svg id="visual" viewBox="0 0 900 600" width="900" height="600" xmlns="http://www.w3.org/2000/svg" xmlns:xlink="http://www.w3.org/1999/xlink" version="1.1"><rect x="0" y="0" width="900" height="600" fill="#001220"></rect><defs><linearGradient id="grad1_0" x1="33.3%" y1="0%" x2="100%" y2="100%"><stop offset="20%" stop-color="#001220" stop-opacity="1"></stop><stop offset="80%" stop-color="#001220" stop-opacity="1"></stop></linearGradient></defs><defs><linearGradient id="grad2_0" x1="0%" y1="0%" x2="66.7%" y2="100%"><stop offset="20%" stop-color="#001220" stop-opacity="1"></stop><stop offset="80%" stop-color="#001220" stop-opacity="1"></stop></linearGradient></defs><g transform="translate(900, 0)"><path d="M0 486.7C-55.4 463.8 -110.9 440.8 -174.9 422.2C-238.9 403.6 -311.4 389.4 -344.2 344.2C-377 299 -370 222.9 -387.1 160.3C-404.2 97.8 -445.5 48.9 -486.7 0L0 0Z" fill="#FBAE3C"></path></g><g transform="translate(0, 600)"><path d="M0 -486.7C65.2 -481 130.4 -475.3 186.3 -449.7C242.2 -424.1 288.8 -378.8 332.3 -332.3C375.9 -285.9 416.4 -238.5 441.6 -182.9C466.8 -127.4 476.8 -63.7 486.7 0L0 0Z" fill="#FBAE3C"></path></g></svg>